<?xml version="1.0" encoding="UTF-8" standalone="no"?>
<!-- Created with Inkscape (http://www.inkscape.org/) -->

<svg
   width="48.414551mm"
   height="44.988342mm"
   viewBox="0 0 48.414551 44.988342"
   version="1.1"
   id="svg1"
   xml:space="preserve"
   xmlns:inkscape="http://www.inkscape.org/namespaces/inkscape"
   xmlns:sodipodi="http://sodipodi.sourceforge.net/DTD/sodipodi-0.dtd"
   xmlns="http://www.w3.org/2000/svg"
   xmlns:svg="http://www.w3.org/2000/svg"><sodipodi:namedview
     id="namedview1"
     pagecolor="#ffffff"
     bordercolor="#000000"
     borderopacity="0.25"
     inkscape:showpageshadow="2"
     inkscape:pageopacity="0.0"
     inkscape:pagecheckerboard="0"
     inkscape:deskcolor="#d1d1d1"
     inkscape:document-units="mm"><inkscape:page
       x="2.9319106e-06"
       y="3.4096814e-07"
       width="48.414551"
       height="44.988342"
       id="page3"
       margin="0"
       bleed="0" /></sodipodi:namedview><defs
     id="defs1"><clipPath
       clipPathUnits="userSpaceOnUse"
       id="clipPath3-8"><path
         d="M 0,294.799 H 238.108 V 0 H 0 Z"
         transform="translate(-74.196302,-103.62301)"
         id="path3-9" /></clipPath><clipPath
       clipPathUnits="userSpaceOnUse"
       id="clipPath5-5"><path
         d="M 0,294.799 H 238.108 V 0 H 0 Z"
         transform="translate(-80.774402,-127.48441)"
         id="path5-4" /></clipPath><clipPath
       clipPathUnits="userSpaceOnUse"
       id="clipPath7-4"><path
         d="M 0,294.799 H 238.108 V 0 H 0 Z"
         transform="translate(-105.2158,-114.9736)"
         id="path7-4" /></clipPath><clipPath
       clipPathUnits="userSpaceOnUse"
       id="clipPath9-0"><path
         d="M 0,294.799 H 238.108 V 0 H 0 Z"
         transform="translate(-122.49711,-109.65631)"
         id="path9-1" /></clipPath><clipPath
       clipPathUnits="userSpaceOnUse"
       id="clipPath11-2"><path
         d="M 0,294.799 H 238.108 V 0 H 0 Z"
         transform="translate(-144.7549,-127.48441)"
         id="path11-6" /></clipPath><clipPath
       clipPathUnits="userSpaceOnUse"
       id="clipPath13-3"><path
         d="M 0,294.799 H 238.108 V 0 H 0 Z"
         transform="translate(-164.9365,-119.30371)"
         id="path13-0" /></clipPath><clipPath
       clipPathUnits="userSpaceOnUse"
       id="clipPath15-3"><path
         d="M 0,294.799 H 238.108 V 0 H 0 Z"
         transform="translate(-172.23141,-109.65631)"
         id="path15-8" /></clipPath><clipPath
       clipPathUnits="userSpaceOnUse"
       id="clipPath17-3"><path
         d="M 0,294.799 H 238.108 V 0 H 0 Z"
         transform="translate(-118.4541,-209.3564)"
         id="path17-3" /></clipPath><clipPath
       clipPathUnits="userSpaceOnUse"
       id="clipPath19-9"><path
         d="M 0,294.799 H 238.108 V 0 H 0 Z"
         transform="translate(-100.2451,-190.333)"
         id="path19-6" /></clipPath><clipPath
       clipPathUnits="userSpaceOnUse"
       id="clipPath21-8"><path
         d="M 0,294.799 H 238.108 V 0 H 0 Z"
         id="path21-3" /></clipPath><clipPath
       clipPathUnits="userSpaceOnUse"
       id="clipPath23-4"><path
         d="M 0,294.799 H 238.108 V 0 H 0 Z"
         id="path23-6" /></clipPath><clipPath
       clipPathUnits="userSpaceOnUse"
       id="clipPath25-5"><path
         d="M 0,294.799 H 238.108 V 0 H 0 Z"
         id="path25-5" /></clipPath><clipPath
       clipPathUnits="userSpaceOnUse"
       id="clipPath27-3"><path
         d="M 0,294.799 H 238.108 V 0 H 0 Z"
         transform="translate(-118.4541,-195.27151)"
         id="path27-5" /></clipPath><clipPath
       clipPathUnits="userSpaceOnUse"
       id="clipPath29-0"><path
         d="M 0,294.799 H 238.108 V 0 H 0 Z"
         id="path29-7" /></clipPath><clipPath
       clipPathUnits="userSpaceOnUse"
       id="clipPath31-5"><path
         d="M 0,294.799 H 238.108 V 0 H 0 Z"
         transform="translate(-132.2646,-191.22661)"
         id="path31-1" /></clipPath><clipPath
       clipPathUnits="userSpaceOnUse"
       id="clipPath33-2"><path
         d="M 0,294.799 H 238.108 V 0 H 0 Z"
         transform="translate(-82.186502,-87.1553)"
         id="path33-6" /></clipPath><clipPath
       clipPathUnits="userSpaceOnUse"
       id="clipPath35-0"><path
         d="M 0,294.799 H 238.108 V 0 H 0 Z"
         transform="translate(-86.2861,-87.475602)"
         id="path35-3" /></clipPath><clipPath
       clipPathUnits="userSpaceOnUse"
       id="clipPath37-9"><path
         d="M 0,294.799 H 238.108 V 0 H 0 Z"
         transform="translate(-87.749005,-86.522502)"
         id="path37-6" /></clipPath><clipPath
       clipPathUnits="userSpaceOnUse"
       id="clipPath39-6"><path
         d="M 0,294.799 H 238.108 V 0 H 0 Z"
         transform="translate(-92.108402,-86.2256)"
         id="path39-5" /></clipPath><clipPath
       clipPathUnits="userSpaceOnUse"
       id="clipPath41-6"><path
         d="M 0,294.799 H 238.108 V 0 H 0 Z"
         transform="translate(-96.723602,-87.150402)"
         id="path41-5" /></clipPath><clipPath
       clipPathUnits="userSpaceOnUse"
       id="clipPath43-3"><path
         d="M 0,294.799 H 238.108 V 0 H 0 Z"
         transform="translate(-103.5088,-87.150402)"
         id="path43-4" /></clipPath><clipPath
       clipPathUnits="userSpaceOnUse"
       id="clipPath45-1"><path
         d="M 0,294.799 H 238.108 V 0 H 0 Z"
         transform="translate(-104.96001,-87.150402)"
         id="path45-0" /></clipPath><clipPath
       clipPathUnits="userSpaceOnUse"
       id="clipPath47-2"><path
         d="M 0,294.799 H 238.108 V 0 H 0 Z"
         transform="translate(-112.2354,-85.3691)"
         id="path47-6" /></clipPath><clipPath
       clipPathUnits="userSpaceOnUse"
       id="clipPath49-3"><path
         d="M 0,294.799 H 238.108 V 0 H 0 Z"
         transform="translate(-113.3955,-86.2256)"
         id="path49-8" /></clipPath><clipPath
       clipPathUnits="userSpaceOnUse"
       id="clipPath51-9"><path
         d="M 0,294.799 H 238.108 V 0 H 0 Z"
         transform="translate(-118.1709,-86.735405)"
         id="path51-5" /></clipPath><clipPath
       clipPathUnits="userSpaceOnUse"
       id="clipPath53-3"><path
         d="M 0,294.799 H 238.108 V 0 H 0 Z"
         id="path53-8" /></clipPath><clipPath
       clipPathUnits="userSpaceOnUse"
       id="clipPath55-2"><path
         d="M 0,294.799 H 238.108 V 0 H 0 Z"
         id="path55-8" /></clipPath><clipPath
       clipPathUnits="userSpaceOnUse"
       id="clipPath57-1"><path
         d="M 0,294.799 H 238.108 V 0 H 0 Z"
         transform="translate(-128.6572,-87.475602)"
         id="path57-1" /></clipPath><clipPath
       clipPathUnits="userSpaceOnUse"
       id="clipPath59-7"><path
         d="M 0,294.799 H 238.108 V 0 H 0 Z"
         transform="translate(-129.7549,-85.3691)"
         id="path59-7" /></clipPath><clipPath
       clipPathUnits="userSpaceOnUse"
       id="clipPath61-4"><path
         d="M 0,294.799 H 238.108 V 0 H 0 Z"
         transform="translate(-136.665,-87.150402)"
         id="path61-6" /></clipPath><clipPath
       clipPathUnits="userSpaceOnUse"
       id="clipPath63-8"><path
         d="M 0,294.799 H 238.108 V 0 H 0 Z"
         transform="translate(-140.7627,-87.475602)"
         id="path63-4" /></clipPath><clipPath
       clipPathUnits="userSpaceOnUse"
       id="clipPath65-3"><path
         d="M 0,294.799 H 238.108 V 0 H 0 Z"
         transform="translate(-142.5186,-89.0078)"
         id="path65-7" /></clipPath><clipPath
       clipPathUnits="userSpaceOnUse"
       id="clipPath67-3"><path
         d="M 0,294.799 H 238.108 V 0 H 0 Z"
         id="path67-5" /></clipPath><clipPath
       clipPathUnits="userSpaceOnUse"
       id="clipPath69-3"><path
         d="M 0,294.799 H 238.108 V 0 H 0 Z"
         transform="translate(-149.76861,-87.475602)"
         id="path69-9" /></clipPath><clipPath
       clipPathUnits="userSpaceOnUse"
       id="clipPath71-0"><path
         d="M 0,294.799 H 238.108 V 0 H 0 Z"
         transform="translate(-151.5225,-89.0078)"
         id="path71-5" /></clipPath><clipPath
       clipPathUnits="userSpaceOnUse"
       id="clipPath73-7"><path
         d="M 0,294.799 H 238.108 V 0 H 0 Z"
         transform="translate(-155.62791,-87.150402)"
         id="path73-8" /></clipPath><clipPath
       clipPathUnits="userSpaceOnUse"
       id="clipPath75-2"><path
         d="M 0,294.799 H 238.108 V 0 H 0 Z"
         transform="translate(-162.3271,-87.475602)"
         id="path75-3" /></clipPath></defs><g
     id="layer-MC1"
     inkscape:groupmode="layer"
     inkscape:label="Layer 2"
     transform="matrix(0.26458333,0,0,0.26458334,174.49168,-60.060419)"><g
       id="g2"><path
         id="path2-2"
         d="M 0,0 H -2.898 V 1.397 C -3.764,0.941 -4.857,0.529 -6.176,0.154 c -1.32,-0.377 -2.834,-0.561 -4.541,-0.561 -2.277,0 -4.236,0.354 -5.875,1.071 -1.638,0.717 -2.988,1.67 -4.047,2.865 -1.054,1.191 -1.843,2.547 -2.353,4.054 -0.512,1.514 -0.77,3.075 -0.77,4.689 0,1.887 0.33,3.576 0.991,5.063 0.656,1.488 1.578,2.743 2.759,3.766 1.18,1.024 2.586,1.807 4.209,2.353 1.627,0.545 3.405,0.815 5.336,0.815 1.682,0 3.143,-0.185 4.381,-0.558 1.24,-0.378 2.277,-0.837 3.119,-1.382 0.84,-0.548 1.504,-1.132 1.994,-1.758 0.489,-0.623 0.834,-1.183 1.037,-1.684 h -2.451 c -0.134,0.476 -0.437,0.947 -0.902,1.413 -0.469,0.465 -1.063,0.882 -1.791,1.244 -0.729,0.364 -1.557,0.658 -2.49,0.885 -0.93,0.228 -1.93,0.342 -2.998,0.342 -1.616,0 -3.03,-0.262 -4.245,-0.786 -1.216,-0.521 -2.248,-1.259 -3.083,-2.212 -0.842,-0.956 -1.473,-2.092 -1.895,-3.411 -0.42,-1.318 -0.629,-2.758 -0.629,-4.328 0,-1.593 0.221,-3.052 0.664,-4.382 0.445,-1.327 1.111,-2.476 1.998,-3.442 0.887,-0.966 2.006,-1.723 3.348,-2.269 1.344,-0.544 2.916,-0.816 4.713,-0.816 1.367,0 2.586,0.158 3.656,0.476 1.07,0.317 2.115,0.807 3.143,1.466 v 6.17 h -3.819 v 1.4 H 0 Z"
         style="fill:#c2712e;fill-opacity:1;fill-rule:nonzero;stroke:none"
         transform="matrix(1.3333333,0,0,-1.3333333,-627.81345,370.38585)"
         clip-path="url(#clipPath3-8)" /><path
         id="path4-1"
         d="M 0,0 6.953,-12.576 H 7.088 L 14.385,0 h 1.84 L 7.842,-14.521 v -9.34 H 4.736 v 9.033 L -3.512,0 Z"
         style="fill:#c2712e;fill-opacity:1;fill-rule:nonzero;stroke:none"
         transform="matrix(1.3333333,0,0,-1.3333333,-619.04265,338.57065)"
         clip-path="url(#clipPath5-5)" /><path
         id="path6-4"
         d="m 0,0 c 0.477,-0.182 1.012,-0.301 1.602,-0.359 0.591,-0.056 1.238,-0.082 1.945,-0.082 1.021,0 1.894,0.169 2.623,0.51 0.726,0.34 1.328,0.784 1.807,1.328 C 8.455,1.942 8.801,2.552 9.016,3.224 9.23,3.893 9.34,4.558 9.34,5.216 9.34,5.898 9.223,6.587 8.982,7.277 8.744,7.974 8.387,8.598 7.908,9.155 7.432,9.71 6.828,10.159 6.104,10.5 5.373,10.841 4.533,11.01 3.58,11.01 H 0 Z m 0,-11.351 h -3.104 v 23.862 h 7.979 c 1.316,0 2.463,-0.194 3.441,-0.579 0.979,-0.387 1.789,-0.904 2.438,-1.551 C 11.4,9.731 11.885,8.973 12.203,8.098 12.52,7.222 12.68,6.309 12.68,5.353 12.68,4.354 12.498,3.416 12.135,2.541 11.773,1.665 11.23,0.893 10.516,0.224 9.801,-0.449 8.906,-0.979 7.842,-1.361 6.771,-1.749 5.543,-1.944 4.16,-1.944 3.34,-1.944 2.59,-1.892 1.908,-1.791 1.229,-1.687 0.59,-1.555 0,-1.396 Z"
         style="fill:#c2712e;fill-opacity:1;fill-rule:nonzero;stroke:none"
         transform="matrix(1.3333333,0,0,-1.3333333,-586.45412,355.25172)"
         clip-path="url(#clipPath7-4)" /><path
         id="path8-5"
         d="m 0,0 c 0.023,-0.387 0.113,-0.857 0.273,-1.415 0.161,-0.556 0.465,-1.097 0.918,-1.618 0.455,-0.523 1.118,-0.97 1.977,-1.35 0.865,-0.372 2.014,-0.56 3.445,-0.56 1.795,0 3.233,0.34 4.315,1.024 1.078,0.681 1.615,1.759 1.615,3.235 0,1.184 -0.34,2.127 -1.022,2.832 C 10.838,2.852 9.984,3.449 8.949,3.937 7.914,4.427 6.795,4.865 5.592,5.252 4.387,5.636 3.268,6.104 2.232,6.646 1.197,7.191 0.342,7.875 -0.342,8.691 c -0.681,0.819 -1.021,1.9 -1.021,3.239 0,1.024 0.211,1.931 0.631,2.728 0.418,0.797 0.992,1.455 1.707,1.979 0.714,0.522 1.546,0.921 2.492,1.191 0.945,0.274 1.941,0.407 2.988,0.407 1.002,0 1.961,-0.116 2.885,-0.354 0.92,-0.238 1.744,-0.593 2.473,-1.057 0.728,-0.468 1.332,-1.033 1.812,-1.705 0.477,-0.674 0.783,-1.427 0.92,-2.265 h -2.322 c -0.184,1.338 -0.791,2.32 -1.827,2.947 -1.037,0.624 -2.294,0.936 -3.775,0.936 -0.887,0 -1.672,-0.107 -2.355,-0.322 C 3.584,16.198 3.008,15.912 2.543,15.563 2.078,15.209 1.721,14.795 1.484,14.317 1.244,13.84 1.123,13.331 1.123,12.784 1.123,11.806 1.477,11.021 2.184,10.431 2.889,9.841 3.773,9.318 4.83,8.863 5.893,8.408 7.043,7.978 8.283,7.57 c 1.24,-0.411 2.393,-0.916 3.451,-1.518 1.061,-0.605 1.944,-1.353 2.647,-2.249 0.707,-0.901 1.062,-2.051 1.062,-3.461 0,-1.026 -0.205,-1.956 -0.617,-2.795 -0.408,-0.841 -0.988,-1.558 -1.742,-2.15 -0.75,-0.588 -1.656,-1.046 -2.715,-1.365 C 9.311,-6.284 8.121,-6.44 6.801,-6.44 c -1.299,0 -2.492,0.15 -3.586,0.457 -1.092,0.308 -2.043,0.741 -2.85,1.296 -0.81,0.556 -1.449,1.234 -1.916,2.03 -0.467,0.794 -0.722,1.68 -0.769,2.657 z"
         style="fill:#c2712e;fill-opacity:1;fill-rule:nonzero;stroke:none"
         transform="matrix(1.3333333,0,0,-1.3333333,-563.41238,362.34145)"
         clip-path="url(#clipPath9-0)" /><path
         id="path10-7"
         d="M 0,0 6.957,-12.576 H 7.092 L 14.387,0 h 1.842 L 7.842,-14.521 v -9.34 H 4.738 v 9.033 L -3.51,0 Z"
         style="fill:#c2712e;fill-opacity:1;fill-rule:nonzero;stroke:none"
         transform="matrix(1.3333333,0,0,-1.3333333,-533.73532,338.57065)"
         clip-path="url(#clipPath11-2)" /><path
         id="path12-8"
         d="M 0,0 H -1.227 V 8.794 H 2.012 Z"
         style="fill:#c2712e;fill-opacity:1;fill-rule:nonzero;stroke:none"
         transform="matrix(1.3333333,0,0,-1.3333333,-506.82652,349.47825)"
         clip-path="url(#clipPath13-3)" /><path
         id="path14-8"
         d="m 0,0 c 0.023,-0.387 0.113,-0.857 0.273,-1.415 0.159,-0.556 0.465,-1.097 0.92,-1.618 0.455,-0.523 1.114,-0.97 1.977,-1.35 0.865,-0.372 2.012,-0.56 3.443,-0.56 1.795,0 3.235,0.34 4.313,1.024 1.078,0.681 1.617,1.759 1.617,3.235 0,1.184 -0.34,2.127 -1.02,2.832 C 10.84,2.852 9.982,3.449 8.949,3.937 7.912,4.427 6.797,4.865 5.594,5.252 4.385,5.636 3.268,6.104 2.234,6.646 1.197,7.191 0.342,7.875 -0.34,8.691 c -0.683,0.819 -1.023,1.9 -1.023,3.239 0,1.024 0.209,1.931 0.631,2.728 0.42,0.797 0.99,1.455 1.707,1.979 0.718,0.522 1.548,0.921 2.492,1.191 0.945,0.274 1.939,0.407 2.986,0.407 1.004,0 1.963,-0.116 2.887,-0.354 0.92,-0.238 1.744,-0.593 2.474,-1.057 0.729,-0.468 1.331,-1.033 1.811,-1.705 0.477,-0.674 0.785,-1.427 0.92,-2.265 h -2.322 c -0.182,1.338 -0.791,2.32 -1.828,2.947 -1.034,0.624 -2.293,0.936 -3.772,0.936 -0.887,0 -1.672,-0.107 -2.355,-0.322 C 3.582,16.198 3.008,15.912 2.543,15.563 2.076,15.209 1.723,14.795 1.484,14.317 1.244,13.84 1.125,13.331 1.125,12.784 1.125,11.806 1.479,11.021 2.186,10.431 2.891,9.841 3.775,9.318 4.832,8.863 5.891,8.408 7.043,7.978 8.285,7.57 9.523,7.159 10.676,6.654 11.736,6.052 c 1.057,-0.605 1.942,-1.353 2.647,-2.249 0.709,-0.901 1.058,-2.051 1.058,-3.461 0,-1.026 -0.203,-1.956 -0.613,-2.795 -0.41,-0.841 -0.992,-1.558 -1.742,-2.15 C 12.336,-5.191 11.43,-5.649 10.371,-5.968 9.309,-6.284 8.123,-6.44 6.803,-6.44 c -1.301,0 -2.496,0.15 -3.588,0.457 -1.092,0.308 -2.043,0.741 -2.852,1.296 -0.808,0.556 -1.445,1.234 -1.912,2.03 -0.467,0.794 -0.724,1.68 -0.769,2.657 z"
         style="fill:#c2712e;fill-opacity:1;fill-rule:nonzero;stroke:none"
         transform="matrix(1.3333333,0,0,-1.3333333,-497.09998,362.34145)"
         clip-path="url(#clipPath15-3)" /><path
         id="path16-8"
         d="M 0,0 C -10.707,0 -19.422,-8.713 -19.422,-19.422 V -43.01 c 0,-10.71 8.715,-19.428 19.422,-19.428 10.711,0 19.424,8.718 19.424,19.428 v 23.588 C 19.424,-8.713 10.711,0 0,0 m 0,-64.245 c -11.703,0 -21.225,9.526 -21.225,21.235 v 23.588 c 0,11.704 9.522,21.228 21.225,21.228 11.707,0 21.23,-9.524 21.23,-21.228 V -43.01 C 21.23,-54.719 11.707,-64.245 0,-64.245"
         style="fill:#c2712e;fill-opacity:1;fill-rule:nonzero;stroke:none"
         transform="matrix(1.3333333,0,0,-1.3333333,-568.80305,229.40799)"
         clip-path="url(#clipPath17-3)" /><path
         id="path18-2"
         d="M 0,0 18.209,-17.032 36.424,0 Z M 18.822,-18.91 H 17.6 L -2.877,0.241 -2.266,1.788 h 40.954 l 0.607,-1.547 z"
         style="fill:#c2712e;fill-opacity:1;fill-rule:nonzero;stroke:none"
         transform="matrix(1.3333333,0,0,-1.3333333,-593.08172,254.77252)"
         clip-path="url(#clipPath19-9)" /><path
         id="path20-1"
         d="m 119.349,155.522 h -1.785 v 16.555 h 1.785 z"
         style="fill:#c2712e;fill-opacity:1;fill-rule:nonzero;stroke:none"
         transform="matrix(1.3333333,0,0,-1.3333333,-726.74185,508.54985)"
         clip-path="url(#clipPath21-8)" /><path
         id="path22-6"
         d="m 135.601,154.631 h -34.287 v 1.786 h 34.287 z"
         style="fill:#c2712e;fill-opacity:1;fill-rule:nonzero;stroke:none"
         transform="matrix(1.3333333,0,0,-1.3333333,-726.74185,508.54985)"
         clip-path="url(#clipPath23-4)" /><path
         id="path24-8"
         d="m 131.642,149.991 h -26.814 v 1.788 h 26.814 z"
         style="fill:#c2712e;fill-opacity:1;fill-rule:nonzero;stroke:none"
         transform="matrix(1.3333333,0,0,-1.3333333,-726.74185,508.54985)"
         clip-path="url(#clipPath25-5)" /><path
         id="path26-1"
         d="m 0,0 c -2.23,0 -4.045,-1.814 -4.045,-4.045 0,-2.231 1.815,-4.047 4.045,-4.047 2.232,0 4.049,1.816 4.049,4.047 C 4.049,-1.814 2.232,0 0,0 m 0,-9.88 c -3.215,0 -5.832,2.617 -5.832,5.835 0,3.217 2.617,5.833 5.832,5.833 3.219,0 5.834,-2.616 5.834,-5.833 C 5.834,-7.263 3.219,-9.88 0,-9.88"
         style="fill:#c2712e;fill-opacity:1;fill-rule:nonzero;stroke:none"
         transform="matrix(1.3333333,0,0,-1.3333333,-568.80305,248.18785)"
         clip-path="url(#clipPath27-3)" /><path
         id="path28-4"
         d="m 119.349,196.166 h -1.785 v 14.094 h 1.785 z"
         style="fill:#c2712e;fill-opacity:1;fill-rule:nonzero;stroke:none"
         transform="matrix(1.3333333,0,0,-1.3333333,-726.74185,508.54985)"
         clip-path="url(#clipPath29-0)" /><path
         id="path30-1"
         d="m 0,0 h -1.789 c 0,6.628 -5.393,12.021 -12.022,12.021 C -20.439,12.021 -25.83,6.628 -25.83,0 h -1.787 c 0,7.615 6.193,13.809 13.806,13.809 C -6.195,13.809 0,7.615 0,0"
         style="fill:#c2712e;fill-opacity:1;fill-rule:nonzero;stroke:none"
         transform="matrix(1.3333333,0,0,-1.3333333,-550.38905,253.58105)"
         clip-path="url(#clipPath31-5)" /><path
         id="path32-3"
         d="m 0,0 c 0,0.74 -0.291,1.373 -1.059,1.373 -0.74,0 -1.06,-0.641 -1.06,-1.373 0,-0.741 0.32,-1.379 1.06,-1.379 C -0.291,-1.379 0,-0.747 0,0 m -2.078,-1.342 h -0.027 l -0.081,-0.516 h -0.529 v 5.372 h 0.61 V 1.337 h 0.027 c 0.197,0.328 0.57,0.582 1.121,0.582 1.043,0 1.566,-0.821 1.574,-1.919 -0.008,-1.196 -0.603,-1.924 -1.574,-1.924 -0.551,0 -0.924,0.254 -1.121,0.582"
         style="fill:#c2712e;fill-opacity:1;fill-rule:nonzero;stroke:none"
         transform="matrix(1.3333333,0,0,-1.3333333,-617.15985,392.34279)"
         clip-path="url(#clipPath33-2)" /><path
         id="path34-6"
         d="M 0,0 C 0,0.586 -0.312,1.054 -0.975,1.054 -1.67,1.054 -1.982,0.581 -2.002,0 Z m -2.65,-0.325 c 0,1.074 0.529,1.923 1.675,1.923 1.047,0 1.606,-0.779 1.606,-1.81 v -0.297 h -2.643 c 0,-0.704 0.358,-1.19 1.045,-1.19 0.487,0 0.836,0.203 0.938,0.595 H 0.58 c -0.101,-0.682 -0.756,-1.14 -1.547,-1.14 -1.094,0 -1.683,0.828 -1.683,1.919"
         style="fill:#c2712e;fill-opacity:1;fill-rule:nonzero;stroke:none"
         transform="matrix(1.3333333,0,0,-1.3333333,-611.69372,391.91572)"
         clip-path="url(#clipPath35-0)" /><path
         id="path36-7"
         d="m 0,0 h 0.611 c 0,-0.492 0.377,-0.746 0.907,-0.746 0.521,0 0.851,0.175 0.851,0.531 0,0.246 -0.168,0.444 -0.568,0.527 l -0.74,0.141 c -0.61,0.124 -0.946,0.491 -0.946,1.036 0,0.618 0.533,1.062 1.352,1.062 0.834,0 1.429,-0.457 1.429,-1.198 H 2.301 C 2.281,1.823 1.93,2.035 1.467,2.035 1.018,2.035 0.703,1.854 0.703,1.489 c 0,-0.291 0.24,-0.456 0.649,-0.52 L 1.93,0.857 C 2.629,0.699 2.982,0.421 2.982,-0.215 2.982,-0.896 2.316,-1.291 1.518,-1.291 0.639,-1.291 0.021,-0.81 0,0"
         style="fill:#c2712e;fill-opacity:1;fill-rule:nonzero;stroke:none"
         transform="matrix(1.3333333,0,0,-1.3333333,-609.74318,393.18652)"
         clip-path="url(#clipPath37-9)" /><path
         id="path38-6"
         d="M 0,0 V 2.267 H -0.615 V 2.782 H 0.016 V 3.575 L 0.539,3.776 H 0.611 V 2.782 H 1.52 V 2.267 H 0.611 V 0.05 c 0,-0.354 0.155,-0.507 0.487,-0.507 0.175,0 0.283,0.02 0.363,0.045 H 1.535 V -0.934 C 1.418,-0.966 1.215,-0.994 0.982,-0.994 0.25,-0.994 0,-0.616 0,0"
         style="fill:#c2712e;fill-opacity:1;fill-rule:nonzero;stroke:none"
         transform="matrix(1.3333333,0,0,-1.3333333,-603.93065,393.58239)"
         clip-path="url(#clipPath39-6)" /><path
         id="path40-7"
         d="m 0,0 c 0,1.152 0.572,1.924 1.678,1.924 0.992,0 1.474,-0.59 1.523,-1.338 H 2.59 C 2.555,1.082 2.215,1.378 1.678,1.378 0.916,1.378 0.617,0.761 0.617,0 c 0,-0.779 0.299,-1.382 1.061,-1.382 0.551,0 0.877,0.283 0.927,0.778 H 3.217 C 3.145,-1.387 2.648,-1.919 1.686,-1.919 0.572,-1.919 0,-1.17 0,0"
         style="fill:#c2712e;fill-opacity:1;fill-rule:nonzero;stroke:none"
         transform="matrix(1.3333333,0,0,-1.3333333,-597.77705,392.34932)"
         clip-path="url(#clipPath41-6)" /><path
         id="path42-6"
         d="M 0,0 C 0,0.798 -0.305,1.378 -1.061,1.378 -1.814,1.378 -2.117,0.79 -2.117,0 c 0,-0.8 0.312,-1.374 1.056,-1.374 C -0.305,-1.374 0,-0.8 0,0 m -2.734,0 c 0,1.065 0.527,1.924 1.673,1.924 1.147,0 1.678,-0.859 1.678,-1.924 0,-1.062 -0.513,-1.919 -1.678,-1.919 -1.162,0 -1.673,0.852 -1.673,1.919"
         style="fill:#c2712e;fill-opacity:1;fill-rule:nonzero;stroke:none"
         transform="matrix(1.3333333,0,0,-1.3333333,-588.73012,392.34932)"
         clip-path="url(#clipPath43-3)" /><path
         id="path44-6"
         d="m 0,0 c 0,1.152 0.572,1.924 1.676,1.924 0.994,0 1.472,-0.59 1.525,-1.338 H 2.592 C 2.553,1.082 2.213,1.378 1.676,1.378 0.914,1.378 0.617,0.761 0.617,0 c 0,-0.779 0.297,-1.382 1.059,-1.382 0.553,0 0.877,0.283 0.929,0.778 h 0.61 C 3.143,-1.387 2.648,-1.919 1.682,-1.919 0.572,-1.919 0,-1.17 0,0"
         style="fill:#c2712e;fill-opacity:1;fill-rule:nonzero;stroke:none"
         transform="matrix(1.3333333,0,0,-1.3333333,-586.79518,392.34932)"
         clip-path="url(#clipPath45-1)" /><path
         id="path46-6"
         d="m 0,0 v -0.072 h -0.703 l -1.623,2.083 1.564,1.628 h 0.719 V 3.567 L -1.545,2.011 Z M -2.326,-0.072 H -2.937 V 5.3 h 0.611 z"
         style="fill:#c2712e;fill-opacity:1;fill-rule:nonzero;stroke:none"
         transform="matrix(1.3333333,0,0,-1.3333333,-577.09465,394.72439)"
         clip-path="url(#clipPath47-2)" /><path
         id="path48-3"
         d="M 0,0 V 2.267 H -0.615 V 2.782 H 0.016 V 3.575 L 0.539,3.776 H 0.611 V 2.782 H 1.518 V 2.267 H 0.611 V 0.05 c 0,-0.354 0.151,-0.507 0.485,-0.507 0.175,0 0.285,0.02 0.365,0.045 H 1.533 V -0.934 C 1.418,-0.966 1.213,-0.994 0.98,-0.994 0.248,-0.994 0,-0.616 0,0"
         style="fill:#c2712e;fill-opacity:1;fill-rule:nonzero;stroke:none"
         transform="matrix(1.3333333,0,0,-1.3333333,-575.54785,393.58239)"
         clip-path="url(#clipPath49-3)" /><path
         id="path50-2"
         d="m 0,0 v 0.187 c -0.305,0.096 -0.586,0.132 -0.914,0.132 -0.602,0 -0.916,-0.232 -0.916,-0.671 0,-0.367 0.248,-0.641 0.787,-0.641 C -0.414,-0.993 0,-0.538 0,0 m -2.445,-0.355 c 0,0.625 0.443,1.159 1.531,1.159 C -0.521,0.804 -0.23,0.74 0,0.677 V 1.046 C 0,1.459 -0.254,1.814 -0.857,1.814 -1.4,1.814 -1.67,1.51 -1.676,1.152 h -0.59 c 0,0.715 0.596,1.186 1.409,1.186 0.953,0 1.455,-0.573 1.455,-1.277 V -1.437 H 0.08 l -0.045,0.52 H 0.008 c -0.227,-0.374 -0.639,-0.587 -1.162,-0.587 -0.805,0 -1.291,0.502 -1.291,1.149"
         style="fill:#c2712e;fill-opacity:1;fill-rule:nonzero;stroke:none"
         transform="matrix(1.3333333,0,0,-1.3333333,-569.18065,392.90265)"
         clip-path="url(#clipPath51-9)" /><path
         id="path52-9"
         d="m 120.108,89.008 h 0.609 v -3.711 h -0.609 z m -0.117,1.139 c 0,0.255 0.139,0.421 0.42,0.421 0.277,0 0.424,-0.166 0.424,-0.421 0,-0.262 -0.147,-0.428 -0.424,-0.428 -0.281,0 -0.42,0.166 -0.42,0.428"
         style="fill:#c2712e;fill-opacity:1;fill-rule:nonzero;stroke:none"
         transform="matrix(1.3333333,0,0,-1.3333333,-726.74185,508.54985)"
         clip-path="url(#clipPath53-3)" /><path
         id="path54-2"
         d="m 122.058,90.669 h 0.613 v -5.372 h -0.613 z"
         style="fill:#c2712e;fill-opacity:1;fill-rule:nonzero;stroke:none"
         transform="matrix(1.3333333,0,0,-1.3333333,-726.74185,508.54985)"
         clip-path="url(#clipPath55-2)" /><path
         id="path56-3"
         d="M 0,0 C 0,0.586 -0.312,1.054 -0.975,1.054 -1.672,1.054 -1.984,0.581 -2.006,0 Z m -2.65,-0.325 c 0,1.074 0.529,1.923 1.675,1.923 1.047,0 1.606,-0.779 1.606,-1.81 v -0.297 h -2.643 c 0,-0.704 0.356,-1.19 1.043,-1.19 0.489,0 0.836,0.203 0.94,0.595 h 0.607 c -0.101,-0.682 -0.754,-1.14 -1.547,-1.14 -1.094,0 -1.681,0.828 -1.681,1.919"
         style="fill:#c2712e;fill-opacity:1;fill-rule:nonzero;stroke:none"
         transform="matrix(1.3333333,0,0,-1.3333333,-555.19892,391.91572)"
         clip-path="url(#clipPath57-1)" /><path
         id="path58-8"
         d="M 0,0 1.301,1.794 0.045,3.567 V 3.639 H 0.699 L 1.678,2.206 H 1.707 L 2.68,3.639 H 3.342 V 3.567 L 2.076,1.81 3.361,0 V -0.072 H 2.723 L 1.707,1.396 H 1.678 L 0.648,-0.072 H 0 Z"
         style="fill:#c2712e;fill-opacity:1;fill-rule:nonzero;stroke:none"
         transform="matrix(1.3333333,0,0,-1.3333333,-553.73532,394.72439)"
         clip-path="url(#clipPath59-7)" /><path
         id="path60-1"
         d="m 0,0 c 0,0.745 -0.291,1.378 -1.059,1.378 -0.742,0 -1.06,-0.641 -1.06,-1.378 0,-0.736 0.318,-1.374 1.06,-1.374 C -0.291,-1.374 0,-0.742 0,0 m -2.715,1.857 h 0.529 l 0.081,-0.516 h 0.029 c 0.197,0.329 0.566,0.583 1.117,0.583 0.975,0 1.568,-0.73 1.574,-1.924 -0.006,-1.099 -0.527,-1.919 -1.574,-1.919 -0.551,0 -0.92,0.254 -1.117,0.582 h -0.029 v -2.177 h -0.61 z"
         style="fill:#c2712e;fill-opacity:1;fill-rule:nonzero;stroke:none"
         transform="matrix(1.3333333,0,0,-1.3333333,-544.52185,392.34932)"
         clip-path="url(#clipPath61-4)" /><path
         id="path62-9"
         d="M 0,0 C 0,0.586 -0.311,1.054 -0.971,1.054 -1.67,1.054 -1.982,0.581 -2.002,0 Z m -2.648,-0.325 c 0,1.074 0.529,1.923 1.677,1.923 1.045,0 1.602,-0.779 1.602,-1.81 V -0.509 H -2.01 c 0,-0.704 0.356,-1.19 1.045,-1.19 0.488,0 0.836,0.203 0.938,0.595 H 0.58 c -0.101,-0.682 -0.752,-1.14 -1.545,-1.14 -1.094,0 -1.683,0.828 -1.683,1.919"
         style="fill:#c2712e;fill-opacity:1;fill-rule:nonzero;stroke:none"
         transform="matrix(1.3333333,0,0,-1.3333333,-539.05825,391.91572)"
         clip-path="url(#clipPath63-8)" /><path
         id="path64-7"
         d="M 0,0 H 0.529 L 0.58,-0.626 H 0.607 C 0.762,-0.209 1.133,0.042 1.59,0.042 H 1.924 V -0.542 H 1.633 c -0.703,0 -1.026,-0.496 -1.026,-1.366 V -3.711 H 0 Z"
         style="fill:#c2712e;fill-opacity:1;fill-rule:nonzero;stroke:none"
         transform="matrix(1.3333333,0,0,-1.3333333,-536.71705,389.87279)"
         clip-path="url(#clipPath65-3)" /><path
         id="path66-4"
         d="m 145.456,89.008 h 0.609 v -3.711 h -0.609 z m -0.113,1.139 c 0,0.255 0.136,0.421 0.42,0.421 0.275,0 0.42,-0.166 0.42,-0.421 0,-0.262 -0.145,-0.428 -0.42,-0.428 -0.284,0 -0.42,0.166 -0.42,0.428"
         style="fill:#c2712e;fill-opacity:1;fill-rule:nonzero;stroke:none"
         transform="matrix(1.3333333,0,0,-1.3333333,-726.74185,508.54985)"
         clip-path="url(#clipPath67-3)" /><path
         id="path68-8"
         d="M 0,0 C 0,0.586 -0.312,1.054 -0.975,1.054 -1.67,1.054 -1.984,0.581 -2.004,0 Z m -2.652,-0.325 c 0,1.074 0.531,1.923 1.677,1.923 1.045,0 1.604,-0.779 1.604,-1.81 v -0.297 h -2.641 c 0,-0.704 0.354,-1.19 1.043,-1.19 0.489,0 0.836,0.203 0.94,0.595 H 0.58 c -0.101,-0.682 -0.756,-1.14 -1.549,-1.14 -1.092,0 -1.683,0.828 -1.683,1.919"
         style="fill:#c2712e;fill-opacity:1;fill-rule:nonzero;stroke:none"
         transform="matrix(1.3333333,0,0,-1.3333333,-527.05038,391.91572)"
         clip-path="url(#clipPath69-3)" /><path
         id="path70-3"
         d="M 0,0 H 0.529 L 0.58,-0.581 h 0.029 c 0.196,0.378 0.573,0.646 1.149,0.646 0.818,0 1.299,-0.515 1.299,-1.365 V -3.711 H 2.445 v 2.315 c 0,0.583 -0.269,0.917 -0.855,0.917 -0.617,0 -0.981,-0.437 -0.981,-1.183 V -3.711 H 0 Z"
         style="fill:#c2712e;fill-opacity:1;fill-rule:nonzero;stroke:none"
         transform="matrix(1.3333333,0,0,-1.3333333,-524.71185,389.87279)"
         clip-path="url(#clipPath71-0)" /><path
         id="path72-6"
         d="m 0,0 c 0,1.152 0.572,1.924 1.678,1.924 0.992,0 1.472,-0.59 1.523,-1.338 H 2.592 C 2.555,1.082 2.213,1.378 1.678,1.378 0.914,1.378 0.617,0.761 0.617,0 c 0,-0.779 0.297,-1.382 1.061,-1.382 0.551,0 0.877,0.283 0.927,0.778 H 3.217 C 3.145,-1.387 2.648,-1.919 1.684,-1.919 0.572,-1.919 0,-1.17 0,0"
         style="fill:#c2712e;fill-opacity:1;fill-rule:nonzero;stroke:none"
         transform="matrix(1.3333333,0,0,-1.3333333,-519.23798,392.34932)"
         clip-path="url(#clipPath73-7)" /><path
         id="path74-8"
         d="M 0,0 C 0,0.586 -0.312,1.054 -0.975,1.054 -1.67,1.054 -1.984,0.581 -2.006,0 Z m -2.65,-0.325 c 0,1.074 0.529,1.923 1.675,1.923 1.045,0 1.604,-0.779 1.604,-1.81 v -0.297 h -2.641 c 0,-0.704 0.356,-1.19 1.045,-1.19 0.487,0 0.834,0.203 0.936,0.595 H 0.58 c -0.101,-0.682 -0.756,-1.14 -1.547,-1.14 -1.096,0 -1.683,0.828 -1.683,1.919"
         style="fill:#c2712e;fill-opacity:1;fill-rule:nonzero;stroke:none"
         transform="matrix(1.3333333,0,0,-1.3333333,-510.30572,391.91572)"
         clip-path="url(#clipPath75-2)" /></g></g></svg>
